<?xml version="1.0" encoding="utf-8"?>
<!-- Generator: Adobe Illustrator 22.1.0, SVG Export Plug-In . SVG Version: 6.00 Build 0)  -->
<svg version="1.1" id="Layer_1" xmlns="http://www.w3.org/2000/svg" xmlns:xlink="http://www.w3.org/1999/xlink" x="0px" y="0px"
	 viewBox="0 0 64 64" style="enable-background:new 0 0 64 64;" xml:space="preserve">
<style type="text/css">
	.st0{fill:#F95632;}
	.st1{fill:#33CCCC;}
	.st2{fill:#C1CED4;}
	.st3{fill:#FFFFFF;}
</style>
<g>
	<rect x="8" y="50.3" class="st0" width="12.3" height="9.4"/>
	<rect x="41.6" y="50.3" class="st0" width="12.3" height="9.4"/>
	<rect x="26.8" y="50.3" class="st1" width="12.3" height="9.4"/>
	<g>
		<path class="st2" d="M54.5,36.6h-46V7.3c0-1.4,1.2-2.6,2.6-2.6h40.7c1.4,0,2.6,1.2,2.6,2.6V36.6z M11.6,33.4h39.7V7.9H11.6V33.4z"
			/>
	</g>
	<polygon class="st0" points="8.4,36.4 15.4,29.3 19,32.9 22.8,29.3 24.6,31 29.6,26.1 31.9,28.1 34.7,26.1 35.6,27.3 40.7,22.9 
		43.5,25.5 48.1,20.6 48.1,36.4 	"/>
	<g>
		<g>
			<polygon points="3.8,33.7 2.3,32.2 13.5,21.3 18.8,26.4 23.9,21.4 26.6,23.7 33.7,16.7 37.3,19.9 40.8,16.7 42.2,18.2 49.6,12.5 
				53.2,15.2 59.1,9.9 60.5,11.4 53.3,17.9 49.6,15.1 42.1,20.9 40.7,19.6 37.4,22.7 33.8,19.6 26.7,26.6 24,24.2 18.8,29.4 
				13.5,24.2 			"/>
		</g>
		<g>
			<g>
				<polygon points="59.2,16 59.4,11 54.4,10.7 56.6,8.7 61.7,9 61.4,14 				"/>
			</g>
		</g>
	</g>
	<g>
		<path d="M14.6,16.4c-2.2,0-4.1-1.8-4.1-4.1c0-2.2,1.8-4.1,4.1-4.1s4.1,1.8,4.1,4.1C18.6,14.6,16.8,16.4,14.6,16.4z M14.6,9.9
			c-1.4,0-2.5,1.1-2.5,2.5c0,1.4,1.1,2.5,2.5,2.5s2.5-1.1,2.5-2.5C17.1,11,15.9,9.9,14.6,9.9z"/>
	</g>
	<g>
		<rect x="27.5" y="3.4" transform="matrix(0.7071 -0.7071 0.7071 0.7071 2.4223 22.4151)" width="1.6" height="9.8"/>
	</g>
	<g>
		<rect x="23.4" y="7.5" transform="matrix(0.7071 -0.7071 0.7071 0.7071 2.4223 22.4151)" width="9.8" height="1.6"/>
	</g>
	<g>
		<rect x="30.2" y="34.4" width="1.5" height="14"/>
	</g>
	<g>
		<polygon points="13.1,48.4 11.6,48.4 11.6,44.3 25.3,44.3 25.3,36.6 26.8,36.6 26.8,45.8 13.1,45.8 		"/>
	</g>
	<g>
		<polygon points="49.8,48.4 48.3,48.4 48.3,45.8 34.7,45.8 34.7,36.6 36.2,36.6 36.2,44.3 49.8,44.3 		"/>
	</g>
	<g>
		<path d="M19.4,58.7H5.3v-11h14.1V58.7z M6.8,57.2h11.1v-8H6.8V57.2z"/>
	</g>
	<g>
		<path d="M37.9,58.7H23.9v-11h14.1V58.7z M25.4,57.2h11.1v-8H25.4V57.2z"/>
	</g>
	<g>
		<path d="M56.1,58.7H42.1v-11h14.1V58.7z M43.6,57.2h11.1v-8H43.6V57.2z"/>
	</g>
	<g>
		<polygon class="st3" points="13.1,57.3 11.6,55.8 10.3,57.1 9.2,56 11.6,53.6 13.1,55.1 15,53.2 16.4,54.7 18.3,52.8 19.3,53.9 
			16.4,56.8 15,55.3 		"/>
	</g>
	<circle class="st3" cx="32.9" cy="53.1" r="1.5"/>
	<path class="st3" d="M33.5,55.1h-1.1c-1.1,0-2,0.9-2,2v0.8h5.1v-0.8C35.5,56,34.6,55.1,33.5,55.1z"/>
	<g>
		<path class="st3" d="M47.7,52.3c-1.6,0-2.9,1.3-2.9,2.9s1.3,2.9,2.9,2.9s2.9-1.3,2.9-2.9S49.3,52.3,47.7,52.3z M47.7,56.5
			c-0.8,0-1.4-0.6-1.4-1.4c0-0.8,0.6-1.4,1.4-1.4s1.4,0.6,1.4,1.4C49.1,55.9,48.5,56.5,47.7,56.5z"/>
		<polygon class="st3" points="47.2,51.8 46.8,52.4 48.6,52.4 48.1,51.8 		"/>
		<polygon class="st3" points="47.2,58.5 46.8,57.8 48.6,57.8 48.1,58.5 		"/>
		<polygon class="st3" points="51,54.7 50.4,54.2 50.4,56.1 51,55.5 		"/>
		<polygon class="st3" points="44.4,54.7 45,54.2 45,56.1 44.4,55.5 		"/>
		<polygon class="st3" points="50.4,57.2 50.3,56.4 49,57.7 49.8,57.8 		"/>
		<polygon class="st3" points="45.7,52.4 46.4,52.6 45.1,53.9 45,53.1 		"/>
		<polygon class="st3" points="45.7,57.8 46.4,57.7 45.1,56.4 45,57.2 		"/>
		<polygon class="st3" points="50.4,53.1 50.3,53.8 49,52.5 49.8,52.4 		"/>
	</g>
</g>
</svg>
