<?xml version="1.0" encoding="utf-8"?>
<!-- Generator: Adobe Illustrator 22.1.0, SVG Export Plug-In . SVG Version: 6.00 Build 0)  -->
<svg version="1.1" id="Layer_1" xmlns="http://www.w3.org/2000/svg" xmlns:xlink="http://www.w3.org/1999/xlink" x="0px" y="0px"
	 viewBox="0 0 64 64" style="enable-background:new 0 0 64 64;" xml:space="preserve">
<style type="text/css">
	.st0{fill:#33CCCC;}
	.st1{fill:#C1CED4;}
	.st2{fill:#F95632;}
	.st3{fill:#FFFFFF;}
</style>
<g>
	<path class="st0" d="M17.1,32.1c0,0-8.2-0.1-8.2-7.7s9.3-7.8,9.3-7.8s2.8-10,12.7-10s12.5,9.9,12.5,9.9s8.9,0.4,8.9,7.9
		s-7.5,7.7-7.5,7.7H21.5l-4.4,4.4L17.1,32.1z"/>
	<polygon class="st1" points="58.8,21.6 58.8,10.4 39.8,10.4 39.8,21.6 54.1,21.6 57,24.5 57,21.6 	"/>
	<g>
		<rect x="46.9" y="13.7" width="9.5" height="1.6"/>
	</g>
	<g>
		<rect x="46.9" y="16.8" width="13.9" height="1.6"/>
	</g>
	<g>
		<rect x="3.2" y="19.6" width="13.9" height="1.6"/>
	</g>
	<g>
		<rect x="3.2" y="22.7" width="13.9" height="1.6"/>
	</g>
	<g>
		<rect x="3.2" y="25.4" width="5.2" height="1.6"/>
	</g>
	<rect x="6.1" y="47.1" class="st2" width="13.5" height="10.4"/>
	<rect x="42.9" y="47.1" class="st2" width="13.5" height="10.4"/>
	<rect x="26.7" y="47.1" class="st0" width="13.5" height="10.4"/>
	<g>
		<rect x="30.4" y="29.7" width="1.6" height="15.4"/>
	</g>
	<g>
		<polygon points="11.8,45.1 10.1,45.1 10.1,40.6 25.1,40.6 25.1,32.1 26.8,32.1 26.8,42.2 11.8,42.2 		"/>
	</g>
	<g>
		<polygon points="52,45.1 50.4,45.1 50.4,42.2 35.4,42.2 35.4,32.1 37.1,32.1 37.1,40.6 52,40.6 		"/>
	</g>
	<g>
		<path d="M18.6,56.3H3.2V44.3h15.4V56.3z M4.8,54.7H17v-8.8H4.8V54.7z"/>
	</g>
	<g>
		<path d="M39,56.3H23.5V44.3H39V56.3z M25.2,54.7h12.1v-8.8H25.2V54.7z"/>
	</g>
	<g>
		<path d="M58.9,56.3H43.5V44.3h15.4V56.3z M45.1,54.7h12.1v-8.8H45.1V54.7z"/>
	</g>
	<g>
		<polygon class="st3" points="11.7,54.8 10,53.1 8.6,54.5 7.4,53.4 10,50.8 11.7,52.4 13.8,50.3 15.4,51.9 17.4,49.9 18.5,51 
			15.4,54.2 13.8,52.7 		"/>
	</g>
	<circle class="st3" cx="33.4" cy="50.1" r="1.7"/>
	<path class="st3" d="M34.2,52.4h-1.6c-1.1,0-2,0.9-2,2v1.1h5.6v-1.1C36.2,53.3,35.3,52.4,34.2,52.4z"/>
	<g>
		<path class="st3" d="M49.7,49.3c-1.7,0-3.2,1.4-3.2,3.2c0,1.7,1.4,3.2,3.2,3.2c1.7,0,3.2-1.4,3.2-3.2
			C52.8,50.7,51.4,49.3,49.7,49.3z M49.7,54c-0.9,0-1.5-0.7-1.5-1.5c0-0.9,0.7-1.5,1.5-1.5c0.9,0,1.5,0.7,1.5,1.5
			C51.2,53.3,50.5,54,49.7,54z"/>
		<polygon class="st3" points="49.2,48.7 48.7,49.4 50.7,49.4 50.1,48.7 		"/>
		<polygon class="st3" points="49.2,56.1 48.7,55.4 50.7,55.4 50.1,56.1 		"/>
		<polygon class="st3" points="53.4,51.9 52.7,51.4 52.7,53.4 53.4,52.9 		"/>
		<polygon class="st3" points="46,51.9 46.7,51.4 46.7,53.4 46,52.9 		"/>
		<polygon class="st3" points="52.6,54.7 52.5,53.8 51.1,55.2 52,55.3 		"/>
		<polygon class="st3" points="47.4,49.5 48.3,49.6 46.9,51 46.8,50.1 		"/>
		<polygon class="st3" points="47.4,55.3 48.3,55.2 46.9,53.8 46.8,54.7 		"/>
		<polygon class="st3" points="52.6,50.1 52.5,51 51.1,49.6 52,49.5 		"/>
	</g>
</g>
</svg>
