<?xml version="1.0" encoding="utf-8"?>
<!-- Generator: Adobe Illustrator 22.1.0, SVG Export Plug-In . SVG Version: 6.00 Build 0)  -->
<svg version="1.1" id="Layer_1" xmlns="http://www.w3.org/2000/svg" xmlns:xlink="http://www.w3.org/1999/xlink" x="0px" y="0px"
	 viewBox="0 0 64 64" style="enable-background:new 0 0 64 64;" xml:space="preserve">
<style type="text/css">
	.st0{fill:#C1CED4;}
	.st1{fill:#F95632;}
	.st2{fill:#33CCCC;}
	.st3{fill:#FFFFFF;}
</style>
<g>
	<path class="st0" d="M53.7,25.7c0-10.6-8.6-19.1-19.1-19.1s-19.1,8.6-19.1,19.1c0,6.2,3,11.7,7.5,15.2l0,0c0,0,4.4,3.9,3.8,10.6
		h14.9c0,0-0.2-7.2,4.7-10.8l0,0C50.8,37.2,53.7,31.8,53.7,25.7z M34.6,38.9c-7.4,0-13.4-6-13.4-13.4c0-7.4,6-13.4,13.4-13.4
		S48,18.1,48,25.5C48,32.9,42,38.9,34.6,38.9z"/>
	<g>
		<g>
			<path d="M23,18c0-0.1-0.5-2.4,1.1-3.5c1.5-1,3.2-0.2,3.3-0.2l-0.5,0.9c0,0-1.2-0.6-2.2,0.1c-1,0.7-0.7,2.4-0.7,2.4L23,18z"/>
		</g>
		<g>
			<path d="M20.9,22.6c-0.6-1-0.8-2.1-0.5-3.1c0.3-0.9,0.9-1.6,1.8-2c1.9-0.9,3.4,0.8,3.5,0.8l-0.7,0.7c0,0-1.1-1.1-2.3-0.6
				c-0.6,0.3-1.1,0.8-1.2,1.4c-0.2,0.7-0.1,1.5,0.4,2.3L20.9,22.6z"/>
		</g>
		<g>
			<path d="M28.4,24c-2.3,0-3.2-2-3.2-3.2h1c0,0.6,0.4,2.2,2.2,2.2V24z"/>
		</g>
		<g>
			<path d="M29.8,22.4l-0.1-1c0.2,0,2.2-0.2,2.2-2.2h1C33,21.6,30.9,22.4,29.8,22.4z"/>
		</g>
		<g>
			<path d="M29.7,38.2c-2.3,0-3.1-2.3-3.1-2.9c0-2.3,1.2-3.6,3.2-3.6v1c-1.8,0-2.2,1.4-2.2,2.6c0,0,0.3,1.9,2.1,1.9
				c1.7,0,2.2-1.7,2.3-2V14.9c-0.1-0.3-0.6-2-2.3-2c-1.8,0-2.1,1.9-2.1,1.9c0,1.2,0.4,2.6,2.2,2.6v1c-2,0-3.2-1.4-3.2-3.6
				c0-0.6,0.7-2.9,3.1-2.9c2.2,0,3.1,1.9,3.3,2.8l0,0.1l0,20.6C32.8,36.4,31.8,38.2,29.7,38.2z"/>
		</g>
		<g>
			<path d="M25.8,36.1c-0.5,0-1.1-0.1-1.7-0.5c-1.6-1.1-1.1-3.4-1.1-3.5l1,0.2c0,0-0.3,1.7,0.7,2.4c1.1,0.7,2.2,0.1,2.2,0.1l0.5,0.9
				C27.3,35.8,26.6,36.1,25.8,36.1z"/>
		</g>
		<g>
			<path d="M23.3,32.8c-0.4,0-0.7-0.1-1.1-0.2c-0.9-0.4-1.5-1.1-1.8-2c-0.3-1-0.1-2.1,0.5-3.1l0.9,0.5c-0.5,0.8-0.6,1.6-0.4,2.3
				c0.2,0.6,0.6,1.1,1.2,1.4c1.3,0.6,2.3-0.6,2.3-0.6l0.7,0.7C25.6,31.8,24.7,32.8,23.3,32.8z"/>
		</g>
		<g>
			<path d="M22.5,28.7c-1.1-0.1-3.1-1-3.1-3.6s2.1-3.5,3.1-3.6l0.1,1c-0.2,0-2.2,0.3-2.2,2.6c0,2.4,2.1,2.6,2.2,2.6L22.5,28.7z"/>
		</g>
		<g>
			<path d="M26.2,29.4h-1c0-1.3,0.9-3.2,3.2-3.2v1C26.6,27.1,26.2,28.7,26.2,29.4z"/>
		</g>
		<g>
			<path d="M33,30.9h-1c0-2-2.1-2.2-2.2-2.2l0.1-1C30.9,27.8,33,28.5,33,30.9z"/>
		</g>
	</g>
	<g>
		<g>
			<path d="M44.1,18l-1-0.2c0,0,0.3-1.7-0.7-2.4c-1.1-0.7-2.2-0.1-2.2-0.1l-0.5-0.9c0.1,0,1.7-0.9,3.3,0.2
				C44.5,15.6,44.1,17.9,44.1,18z"/>
		</g>
		<g>
			<path d="M46.2,22.6l-0.9-0.5c0.5-0.8,0.6-1.6,0.4-2.3c-0.2-0.6-0.6-1.1-1.2-1.4c-1.3-0.6-2.3,0.6-2.3,0.6l-0.7-0.7
				c0.1-0.1,1.5-1.7,3.5-0.8c0.9,0.4,1.5,1.1,1.8,2C47,20.5,46.8,21.6,46.2,22.6z"/>
		</g>
		<g>
			<path d="M38.7,24v-1c1.8,0,2.2-1.6,2.2-2.2h1C41.9,22,41,24,38.7,24z"/>
		</g>
		<g>
			<path d="M37.2,22.4c-1.1-0.1-3.2-0.8-3.2-3.2h1c0,2,2.1,2.2,2.2,2.2L37.2,22.4z"/>
		</g>
		<g>
			<path d="M37.4,38.2c-2.2,0-3.1-1.9-3.3-2.8l0-0.1l0-20.6c0.2-1,1.2-2.8,3.3-2.8c2.3,0,3.1,2.3,3.1,2.9c0,2.3-1.2,3.6-3.2,3.6v-1
				c1.8,0,2.2-1.4,2.2-2.6c0,0-0.3-1.9-2.1-1.9c-1.7,0-2.2,1.7-2.3,2v20.4c0.1,0.3,0.6,2,2.3,2c1.8,0,2.1-1.9,2.1-1.9
				c0-1.2-0.4-2.6-2.2-2.6v-1c2,0,3.2,1.4,3.2,3.6C40.4,36,39.7,38.2,37.4,38.2z"/>
		</g>
		<g>
			<path d="M41.3,36.1c-0.9,0-1.5-0.3-1.6-0.4l0.5-0.9c0,0,1.2,0.6,2.2-0.1c1-0.7,0.7-2.4,0.7-2.4l1-0.2c0,0.1,0.5,2.4-1.1,3.5
				C42.4,36,41.8,36.1,41.3,36.1z"/>
		</g>
		<g>
			<path d="M43.7,32.8c-1.3,0-2.3-1-2.3-1.1l0.7-0.7c0,0,1,1.1,2.3,0.6c0.6-0.3,1.1-0.8,1.2-1.4c0.2-0.7,0.1-1.5-0.4-2.3l0.9-0.5
				c0.6,1,0.8,2.1,0.5,3.1c-0.3,0.9-0.9,1.6-1.8,2C44.5,32.7,44.1,32.8,43.7,32.8z"/>
		</g>
		<g>
			<path d="M44.6,28.7l-0.1-1l0,0.5l0-0.5c0.2,0,2.2-0.3,2.2-2.6c0-2.4-2.1-2.6-2.2-2.6l0.1-1c1.1,0.1,3.1,1,3.1,3.6
				S45.6,28.6,44.6,28.7z"/>
		</g>
		<g>
			<path d="M41.9,29.4h-1c0-0.6-0.4-2.2-2.2-2.2v-1C41,26.1,41.9,28.1,41.9,29.4z"/>
		</g>
		<g>
			<path d="M35.1,30.9h-1c0-2.3,2.1-3.1,3.2-3.2l0.1,1C37.1,28.7,35.1,28.9,35.1,30.9z"/>
		</g>
	</g>
	<g>
		<path class="st1" d="M42.1,38C42.1,38.1,42.1,38,42.1,38c0,0.4-0.6,2.4-2.6,2.4c-2.3,0-2.8-2.4-2.8-2.4V27.8V17.5
			c0,0,0.5-2.4,2.8-2.4c2,0,2.6,2,2.6,2.4c0,0,1.4-0.8,2.8,0.1s0.9,2.9,0.9,2.9l0,0c0.4-0.1,0.6-0.1,1.1,0.1
			c1.6,0.7,2.2,2.6,1.1,4.4c0.7,0.4,1.4,1.1,1.4,2.7c0,1.6-0.7,2.3-1.4,2.7c1.1,1.8,0.5,3.6-1.1,4.4c-0.5,0.2-0.7,0.2-1.1,0.1
			c0,0,0.4,2.1-0.9,2.9S42.1,38,42.1,38z"/>
	</g>
	<g>
		<path class="st1" d="M29.3,38C29.3,38.1,29.3,38,29.3,38c0,0.4,0.6,2.4,2.6,2.4c2.3,0,2.8-2.4,2.8-2.4V27.8V17.5
			c0,0-0.5-2.4-2.8-2.4c-2,0-2.6,2-2.6,2.4c0,0-1.4-0.8-2.8,0.1c-1.3,0.9-0.9,2.9-0.9,2.9l0,0c-0.4-0.1-0.6-0.1-1.1,0.1
			c-1.6,0.7-2.2,2.6-1.1,4.4c-0.7,0.4-1.4,1.1-1.4,2.7c0,1.6,0.7,2.3,1.4,2.7c-1.1,1.8-0.5,3.6,1.1,4.4c0.5,0.2,0.7,0.2,1.1,0.1
			c0,0-0.4,2.1,0.9,2.9C27.9,38.8,29.3,38,29.3,38z"/>
	</g>
	<polygon class="st0" points="5.2,21.6 5.2,11.3 22.5,11.3 22.5,21.6 9.5,21.6 6.9,24.2 6.9,21.6 	"/>
	<g>
		<rect x="2" y="14.3" width="14.1" height="1.5"/>
	</g>
	<g>
		<rect x="7.4" y="17.1" width="8.7" height="1.5"/>
	</g>
	<g>
		<polygon points="62,48.6 46,48.6 46,47.1 60.5,47.1 60.5,37.8 62,37.8 		"/>
	</g>
	<g>
		<rect x="43.7" y="35.6" class="st2" width="15.7" height="10.2"/>
		<polygon class="st3" points="46.7,44.5 50.1,41.4 51,42.3 53.6,39.7 58.5,44.5 		"/>
		<circle class="st3" cx="51.1" cy="39.2" r="1.1"/>
	</g>
	<circle class="st2" cx="27.1" cy="6.2" r="3.8"/>
	<g>
		<path d="M49.7,10.8H41V4.2h8.7V10.8z M42.5,9.3h5.7V5.7h-5.7V9.3z"/>
	</g>
	<g>
		<g>
			<path d="M55.4,26.3c-1.5,0-2.8-1.2-2.8-2.8s1.2-2.8,2.8-2.8s2.8,1.2,2.8,2.8S56.9,26.3,55.4,26.3z M55.4,22.3
				c-0.7,0-1.2,0.6-1.2,1.2s0.6,1.2,1.2,1.2s1.2-0.6,1.2-1.2S56.1,22.3,55.4,22.3z"/>
		</g>
		<g>
			<path d="M58.2,23.6h-1.5v-9h1.5c0,1,0.7,1.5,0.9,1.5c0.8,0,1.5,0.3,2,0.8c0.9,0.9,0.9,2.1,0.9,2.2l-1.5,0l0.8,0l-0.8,0
				c0-0.3-0.1-1.5-1.4-1.5c-0.3,0-0.6-0.1-0.9-0.2V23.6z"/>
		</g>
	</g>
	<g>
		<path d="M12.3,45.8c-3.2,0-5.8-2.6-5.8-5.8s2.6-5.8,5.8-5.8s5.8,2.6,5.8,5.8S15.5,45.8,12.3,45.8z M12.3,35.8
			C10,35.8,8,37.7,8,40.1s1.9,4.3,4.3,4.3s4.3-1.9,4.3-4.3S14.6,35.8,12.3,35.8z"/>
	</g>
	<polygon points="14.5,40.1 11,42 11,38.1 	"/>
	<g>
		<rect x="25.3" y="51.4" width="18.4" height="1.5"/>
	</g>
	<g>
		<rect x="29.8" y="60" width="9.3" height="1.5"/>
	</g>
	<g>
		<g>
			<rect x="25.3" y="54.3" width="18.4" height="1.5"/>
		</g>
		<g>
			<rect x="25.3" y="57.2" width="18.4" height="1.5"/>
		</g>
		<g>
			<rect x="40.6" y="51.5" width="1.5" height="7"/>
		</g>
		<g>
			<rect x="27" y="51.5" width="1.5" height="7"/>
		</g>
	</g>
</g>
</svg>
