<?xml version="1.0" encoding="utf-8"?>
<!-- Generator: Adobe Illustrator 22.1.0, SVG Export Plug-In . SVG Version: 6.00 Build 0)  -->
<svg version="1.1" id="Layer_1" xmlns="http://www.w3.org/2000/svg" xmlns:xlink="http://www.w3.org/1999/xlink" x="0px" y="0px"
	 viewBox="0 0 64 64" style="enable-background:new 0 0 64 64;" xml:space="preserve">
<style type="text/css">
	.st0{fill:#33CCCC;}
	.st1{fill:#C1CED4;}
	.st2{fill:#FFFFFF;}
	.st3{fill:#F95632;}
</style>
<g>
	
		<rect x="-5" y="38" transform="matrix(-1.836970e-16 1 -1 -1.836970e-16 50.5356 29.3698)" class="st0" width="31.1" height="3.8"/>
	<path d="M10.6,58.4c-1.1,0-1.9-0.7-1.9-2.9h3.8C12.5,57.7,11.6,58.4,10.6,58.4z"/>
	<polygon points="10.5,20.9 12.5,24.4 8.7,24.4 	"/>
	<g>
		<rect x="8.7" y="52.7" width="3.8" height="1.5"/>
	</g>
	<g>
		<path class="st1" d="M14.2,8.9h32.3v38.6c0,0-0.6,5.2-4.4,5.2s-33.7,0-33.7,0s-4.2-1.5-4.2-5l10,0.1V8.9z"/>
		<g>
			<rect x="17.1" y="7.2" width="1.5" height="38.1"/>
		</g>
		<g>
			<rect x="17.1" y="5.6" width="34.2" height="1.5"/>
		</g>
		<g>
			<path d="M46,51.7H11.9c-3.8,0-4.8-3.9-4.8-5.9V45h33.8v0.8c0,0.2,0.1,4.4,5.1,4.4c1.1,0,1.9-0.3,2.6-1c1.2-1.3,1.2-3.4,1.2-3.4
				l0-38.6h1.5v38.6c0,0.1,0.1,2.8-1.6,4.5C48.8,51.2,47.5,51.7,46,51.7z M8.7,46.5c0.2,1.3,0.8,3.7,3.3,3.7h29.5
				c-1.2-1.1-1.8-2.5-2-3.7H8.7z"/>
		</g>
	</g>
	<g>
		<rect x="4.3" y="12.9" width="10.3" height="1.5"/>
	</g>
	<g>
		<rect x="4.3" y="15.7" width="10.3" height="1.5"/>
	</g>
	<g>
		<rect x="4.3" y="18.5" width="3.3" height="1.5"/>
	</g>
	<g>
		<rect x="52.6" y="21.6" width="2.9" height="1.5"/>
	</g>
	<g>
		<rect x="52.6" y="24.3" width="7.3" height="1.5"/>
	</g>
	<g>
		<rect x="20.5" y="18.9" width="19.8" height="1.5"/>
	</g>
	<g>
		<rect x="23.1" y="21.4" width="19.8" height="1.5"/>
	</g>
	<g>
		<rect x="23.1" y="24.2" width="19.8" height="1.5"/>
	</g>
	<g>
		<rect x="23.1" y="26.8" width="19.8" height="1.5"/>
	</g>
	<g>
		<rect x="23.1" y="29.6" width="17.2" height="1.5"/>
	</g>
	<g>
		<rect x="23.1" y="32.2" width="6.7" height="1.5"/>
	</g>
	<rect x="38.1" y="34" class="st0" width="21.8" height="12.1"/>
	<g>
		<rect x="29.2" y="11.5" class="st2" width="7.6" height="1.5"/>
	</g>
	<g>
		<rect x="29.2" y="14.3" class="st2" width="12.5" height="1.5"/>
	</g>
	<g>
		<g>
			
				<rect x="44.7" y="14.8" transform="matrix(0.7071 -0.7071 0.7071 0.7071 -0.5719 37.8957)" class="st3" width="1.6" height="9.8"/>
		</g>
		<g>
			
				<rect x="40.6" y="18.9" transform="matrix(0.7071 -0.7071 0.7071 0.7071 -0.5719 37.8957)" class="st3" width="9.8" height="1.6"/>
		</g>
	</g>
</g>
</svg>
