<?xml version="1.0" encoding="utf-8"?>
<!-- Generator: Adobe Illustrator 22.1.0, SVG Export Plug-In . SVG Version: 6.00 Build 0)  -->
<svg version="1.1" id="Layer_1" xmlns="http://www.w3.org/2000/svg" xmlns:xlink="http://www.w3.org/1999/xlink" x="0px" y="0px"
	 viewBox="0 0 64 64" style="enable-background:new 0 0 64 64;" xml:space="preserve">
<style type="text/css">
	.st0{fill:#C1CED4;}
	.st1{fill:#FFFFFF;}
	.st2{fill:#33CCCC;}
	.st3{fill:#F95632;}
</style>
<g>
	<path class="st0" d="M11.7,13.8H44v38.6c0,0-0.6,5.2-4.4,5.2S6,57.6,6,57.6s-4.2-1.5-4.2-5l10,0.1V13.8z"/>
	<circle class="st1" cx="31.6" cy="33.3" r="5.3"/>
	<g>
		<rect x="14.7" y="12.1" width="1.5" height="38.1"/>
	</g>
	<g>
		<path d="M43.6,56.6H9.5c-3.8,0-4.8-3.9-4.8-5.9v-0.8h33.8v0.8c0,0.2,0.1,4.4,5.1,4.4c1.1,0,1.9-0.3,2.6-1c1.2-1.3,1.2-3.4,1.2-3.4
			l0-38.6h1.5v38.6c0,0.1,0.1,2.8-1.6,4.5C46.4,56.1,45.1,56.6,43.6,56.6z M6.3,51.4c0.2,1.3,0.8,3.7,3.3,3.7H39
			c-1.2-1.1-1.8-2.5-2-3.7H6.3z"/>
	</g>
	<g>
		<rect x="1.7" y="32.5" width="51" height="1.5"/>
	</g>
	<g>
		<path d="M53.9,39.3c-1.9,0-3.5-1.6-3.5-3.5c0-1,0.5-2,1.2-2.6c-0.8-0.6-1.2-1.6-1.2-2.6c0-1.9,1.6-3.5,3.5-3.5
			c1.6,0,2.9,1.1,3.4,2.5c0.4-0.2,0.9-0.2,1.3-0.2c2.1,0,3.7,1.7,3.7,3.7s-1.7,3.7-3.7,3.7c-0.4,0-0.9-0.1-1.3-0.2
			C56.9,38.1,55.5,39.3,53.9,39.3z M53.9,28.5c-1.1,0-2,0.9-2,2c0,0.9,0.6,1.7,1.5,1.9l0,1.4c-0.9,0.2-1.5,1-1.5,1.9
			c0,1.1,0.9,2,2,2s2-0.9,2-2c0-0.1,0-0.3,0-0.4l1.2-0.7c0.4,0.4,0.9,0.6,1.5,0.6c1.2,0,2.2-1,2.2-2.2c0-1.2-1-2.2-2.2-2.2
			c-0.7,0-1.2,0.3-1.5,0.6l-1.2-0.6l0-0.1c0,0,0-0.1,0-0.1C55.9,29.4,55,28.5,53.9,28.5z"/>
	</g>
	<g>
		<polygon points="4.6,33.1 3.1,33.1 3.1,29.8 2.2,29.8 2.2,28.3 4.6,28.3 		"/>
	</g>
	<g>
		<rect x="6.5" y="29.1" width="1.5" height="4.1"/>
	</g>
	<g>
		<polygon points="11.8,33.1 10.3,33.1 10.3,28.3 12.5,28.3 12.5,29.8 11.8,29.8 		"/>
	</g>
	<g>
		<rect x="3.4" y="17.3" width="10.3" height="1.5"/>
	</g>
	<g>
		<rect x="3.4" y="20" width="10.3" height="1.5"/>
	</g>
	<g>
		<rect x="3.4" y="22.8" width="3.3" height="1.5"/>
	</g>
	<g>
		<rect x="51.1" y="16.6" width="2.9" height="1.5"/>
	</g>
	<g>
		<rect x="51.1" y="19.3" width="9" height="1.5"/>
	</g>
	<g>
		<rect x="51.8" y="43.1" width="6.7" height="1.5"/>
	</g>
	<g>
		<rect x="51.8" y="45.6" width="6.7" height="1.5"/>
	</g>
	<g>
		<rect x="51.8" y="48.4" width="6.7" height="1.5"/>
	</g>
	<g>
		<rect x="51.8" y="51" width="6.7" height="1.5"/>
	</g>
	<g>
		<rect x="51.8" y="53.8" width="6.7" height="1.5"/>
	</g>
	<g>
		<rect x="51.8" y="56.4" width="2.2" height="1.5"/>
	</g>
	<rect x="40.2" y="40.5" class="st2" width="16.7" height="9.7"/>
	<rect x="14.7" y="6.1" class="st3" width="34.1" height="6"/>
	<rect x="31" y="23" width="1.3" height="2.1"/>
	<rect x="31" y="41" width="1.3" height="2.1"/>
	<rect x="28.3" y="23.4" transform="matrix(0.9511 -0.309 0.309 0.9511 -6.151 10.1365)" width="1.3" height="2.1"/>
	<rect x="33.8" y="40.6" transform="matrix(0.9511 -0.309 0.309 0.9511 -11.1688 12.6932)" width="1.3" height="2.1"/>
	<rect x="25.7" y="24.7" transform="matrix(0.809 -0.5878 0.5878 0.809 -10.0992 20.447)" width="1.3" height="2.1"/>
	<rect x="36.3" y="39.3" transform="matrix(0.809 -0.5878 0.5878 0.809 -16.6381 29.447)" width="1.3" height="2.1"/>
	<rect x="23.8" y="26.7" transform="matrix(0.5878 -0.809 0.809 0.5878 -12.3868 31.2008)" width="1.3" height="2.1"/>
	<rect x="38.3" y="37.3" transform="matrix(0.5878 -0.809 0.809 0.5878 -14.9435 47.3432)" width="1.3" height="2.1"/>
	<rect x="22.5" y="29.2" transform="matrix(0.309 -0.9511 0.9511 0.309 -12.79 42.9252)" width="1.3" height="2.1"/>
	<rect x="39.6" y="34.8" transform="matrix(0.309 -0.9511 0.9511 0.309 -6.2511 63.0498)" width="1.3" height="2.1"/>
	<rect x="22.5" y="34.8" transform="matrix(-0.309 -0.9511 0.9511 -0.309 -3.7752 68.9109)" width="1.3" height="2.1"/>
	<rect x="39.6" y="29.2" transform="matrix(-0.309 -0.9511 0.9511 -0.309 23.9239 77.9109)" width="1.3" height="2.1"/>
	<rect x="23.8" y="37.3" transform="matrix(-0.5878 -0.809 0.809 -0.5878 7.7659 80.6285)" width="1.3" height="2.1"/>
	<rect x="38.3" y="26.7" transform="matrix(-0.5878 -0.809 0.809 -0.5878 39.4472 75.6107)" width="1.3" height="2.1"/>
	<rect x="25.7" y="39.3" transform="matrix(-0.809 -0.5878 0.5878 -0.809 24.0819 88.4785)" width="1.3" height="2.1"/>
	<rect x="36.3" y="24.7" transform="matrix(-0.809 -0.5878 0.5878 -0.809 51.7811 68.3539)" width="1.3" height="2.1"/>
	<rect x="28.3" y="40.6" transform="matrix(-0.9511 -0.309 0.309 -0.9511 43.5758 90.1122)" width="1.3" height="2.1"/>
	<rect x="33.8" y="23.4" transform="matrix(-0.9511 -0.309 0.309 -0.9511 59.7182 58.4309)" width="1.3" height="2.1"/>
	<g>
		<rect x="28.3" y="15.8" class="st1" width="7.6" height="1.5"/>
	</g>
	<g>
		<rect x="28.3" y="18.7" class="st1" width="12.5" height="1.5"/>
	</g>
</g>
</svg>
