<?xml version="1.0" encoding="utf-8"?>
<!-- Generator: Adobe Illustrator 22.1.0, SVG Export Plug-In . SVG Version: 6.00 Build 0)  -->
<svg version="1.1" id="Layer_1" xmlns="http://www.w3.org/2000/svg" xmlns:xlink="http://www.w3.org/1999/xlink" x="0px" y="0px"
	 viewBox="0 0 64 64" style="enable-background:new 0 0 64 64;" xml:space="preserve">
<style type="text/css">
	.st0{fill:#FFFFFF;}
	.st1{fill:#33CCCC;}
	.st2{fill:#F95632;}
	.st3{fill:#C1CED4;}
</style>
<g>
	<rect x="16.8" y="12.7" class="st0" width="30.4" height="41"/>
	<rect x="17.9" y="3.2" class="st1" width="33.7" height="6"/>
	<g>
		<rect x="20.7" y="17.1" class="st2" width="13.7" height="13.7"/>
		<path class="st0" d="M29.2,29.1v-4.4h-3.3v4.4h-1.8V22c0-1,0.3-1.8,0.9-2.4c0.6-0.5,1.5-0.8,2.6-0.8c1.2,0,2,0.3,2.6,0.8
			c0.6,0.5,0.9,1.3,0.9,2.3v7.1H29.2z M29.2,22.3c0-0.3,0-0.5-0.1-0.8c0-0.3-0.1-0.5-0.3-0.7c-0.1-0.2-0.3-0.3-0.5-0.5
			c-0.2-0.1-0.5-0.2-0.8-0.2c-0.3,0-0.6,0.1-0.8,0.2s-0.4,0.3-0.5,0.5C26.1,21,26,21.2,26,21.5c0,0.3-0.1,0.5-0.1,0.8v1.2h3.3V22.3z
			"/>
	</g>
	<path class="st3" d="M15.2,11.5v43.3l30.9,0h2.6V11.5H15.2z M46.1,52.1H17.9V14.2h28.2V52.1z"/>
	<g>
		<path d="M48.7,11.6H15.2V5.7h33.5V11.6z M16.7,10.1h30.5V7.2H16.7V10.1z"/>
	</g>
	<rect x="19.5" y="8" width="1.2" height="1.2"/>
	<rect x="21.9" y="8" width="1.2" height="1.2"/>
	<rect x="24.2" y="8" width="1.2" height="1.2"/>
	<g>
		<rect x="37.9" y="16.8" width="14.5" height="1.5"/>
	</g>
	<g>
		<rect x="37.9" y="20" width="14.5" height="1.5"/>
	</g>
	<g>
		<rect x="37.9" y="23.2" width="14.5" height="1.5"/>
	</g>
	<g>
		<rect x="37.9" y="26.4" width="14.5" height="1.5"/>
	</g>
	<g>
		<rect x="37.9" y="29.6" width="5.6" height="1.5"/>
	</g>
	<rect x="11.2" y="33.4" class="st1" width="42.4" height="5.9"/>
	<path d="M57.7,36.4c0,1.6-0.9,3-4,3v-5.9C56.7,33.4,57.7,34.8,57.7,36.4z"/>
	<polygon points="6.3,36.5 11.2,33.4 11.2,39.3 	"/>
	<g>
		<rect x="50.7" y="33.4" width="1.5" height="5.9"/>
	</g>
	<rect x="13" y="45.7" class="st1" width="23.2" height="15"/>
	<polygon class="st0" points="17.8,57.6 22.3,53.4 23.5,54.6 27.2,51.1 33.7,57.6 	"/>
	<circle class="st0" cx="23.8" cy="50.5" r="1.5"/>
	<g>
		<path d="M34.4,58.7H9.7V42.2h24.7V58.7z M11.2,57.2h21.7V43.7H11.2V57.2z"/>
	</g>
</g>
</svg>
