<?xml version="1.0" encoding="utf-8"?>
<!-- Generator: Adobe Illustrator 22.1.0, SVG Export Plug-In . SVG Version: 6.00 Build 0)  -->
<svg version="1.1" id="Layer_1" xmlns="http://www.w3.org/2000/svg" xmlns:xlink="http://www.w3.org/1999/xlink" x="0px" y="0px"
	 viewBox="0 0 64 64" style="enable-background:new 0 0 64 64;" xml:space="preserve">
<style type="text/css">
	.st0{fill:#C1CED4;}
	.st1{fill:#33CCCC;}
	.st2{fill:#FFFFFF;}
	.st3{fill:#F95632;}
	.st4{fill:none;stroke:#000000;stroke-width:1.5;stroke-miterlimit:10;}
</style>
<g>
	<g>
		<path d="M33.7,56.2H11.2c-2.7,0-3.4-2.6-3.4-4l0-0.8h6.6V24.5h23.1v27.1c0,0.4,0.2,2.3-0.9,3.5C35.9,55.8,34.9,56.2,33.7,56.2z
			 M33.7,54.7c0.7,0,1.3-0.2,1.6-0.6c0.8-0.9,0.6-2.4,0.5-2.4l0-0.1V26H15.9v25.4h14.8v0.8C30.6,52.2,30.6,54.7,33.7,54.7z
			 M9.4,52.9c0.2,0.8,0.6,1.8,1.8,1.8h18.9c-0.5-0.6-0.8-1.3-0.9-1.8H9.4z"/>
	</g>
	<path class="st0" d="M55.7,5.9c-2.6,0-19.9,0-19.9,0c-3.1,0-3.1,3.9-3.1,3.9v18H11.1v26.9c-3.5,0-4.2,0-4.2,0s0.1,3.3,2.7,3.3
		s19.9,0,19.9,0c3.1,0,3.1-3.9,3.1-3.9v-18h21.6V9.2c3.5,0,4.2,0,4.2,0S58.3,5.9,55.7,5.9z"/>
	<g>
		<path d="M50.9,38.2H37v-1.5h12.5V11.1c0,0-0.2-2,1-3.3c0.6-0.7,1.4-1,2.5-1v1.5c-0.6,0-1.1,0.2-1.4,0.5c-0.6,0.6-0.6,1.8-0.6,2.2
			L50.9,38.2z"/>
	</g>
	<g>
		<path d="M29.4,25h-1.5V11.1c0,0-0.2-2,1-3.2c0.6-0.7,1.5-1.1,2.7-1.1h21.4c0,0,2-0.2,3.3,1c0.7,0.7,1.1,1.6,1.1,2.8v0.8h-7.1V9.9
			h5.5c-0.1-0.4-0.3-0.7-0.6-1C54.3,8.2,53,8.3,53,8.3l-21.4,0c-0.7,0-1.2,0.2-1.6,0.6c-0.7,0.8-0.6,2.2-0.6,2.2L29.4,25z"/>
	</g>
	<rect x="39.5" y="12.9" class="st1" width="19.6" height="9.6"/>
	<g>
		<rect x="34.5" y="14.8" class="st2" width="7.1" height="1.5"/>
	</g>
	<g>
		<rect x="34.5" y="17.5" class="st2" width="13.2" height="1.5"/>
	</g>
	<g>
		<rect x="9.9" y="9.5" width="12.1" height="1.5"/>
	</g>
	<g>
		<rect x="12.5" y="11.9" width="13" height="1.5"/>
	</g>
	<g>
		<rect x="12.5" y="14.5" width="13" height="1.5"/>
	</g>
	<g>
		<rect x="12.5" y="17.1" width="13" height="1.5"/>
	</g>
	<g>
		<rect x="12.5" y="19.5" width="4.8" height="1.5"/>
	</g>
	<g>
		<rect x="54.2" y="19" width="6.8" height="1.5"/>
	</g>
	<g>
		<rect x="54.2" y="21.7" width="6.8" height="1.5"/>
	</g>
	<g>
		<rect x="54.2" y="24.5" width="3.9" height="1.5"/>
	</g>
	<rect x="42.2" y="43" class="st1" width="17.2" height="11.1"/>
	<rect x="3" y="32.6" class="st3" width="15.4" height="15.4"/>
	<polygon class="st2" points="45.7,51.7 49.1,48.6 50,49.5 52.7,46.9 57.5,51.7 	"/>
	<circle class="st2" cx="50.2" cy="46.5" r="1.1"/>
	<g>
		<path d="M58.6,52.8H39.9V40.2h18.7V52.8z M41.4,51.3h15.7v-9.6H41.4V51.3z"/>
	</g>
	<g>
		<path class="st2" d="M12.6,46.1v-4.9H8.8v4.9H6.8v-8c0-1.2,0.3-2.1,1-2.6s1.6-0.9,2.9-0.9c1.3,0,2.3,0.3,3,0.9
			c0.7,0.6,1,1.5,1,2.6v8H12.6z M12.6,38.4c0-0.3,0-0.6-0.1-0.9c-0.1-0.3-0.1-0.5-0.3-0.8c-0.1-0.2-0.3-0.4-0.6-0.5
			c-0.2-0.1-0.6-0.2-0.9-0.2s-0.7,0.1-0.9,0.2s-0.4,0.3-0.6,0.5C9.1,37,9,37.2,8.9,37.5s-0.1,0.6-0.1,0.9v1.3h3.8V38.4z"/>
	</g>
	<line class="st4" x1="23.3" y1="33.7" x2="31.7" y2="33.7"/>
	<line class="st4" x1="23.3" y1="36.1" x2="31.7" y2="36.1"/>
	<line class="st4" x1="23.3" y1="38.5" x2="31.7" y2="38.5"/>
	<line class="st4" x1="23.4" y1="41" x2="27.6" y2="41"/>
</g>
</svg>
