<?xml version="1.0" encoding="utf-8"?>
<!-- Generator: Adobe Illustrator 22.1.0, SVG Export Plug-In . SVG Version: 6.00 Build 0)  -->
<svg version="1.1" id="Layer_1" xmlns="http://www.w3.org/2000/svg" xmlns:xlink="http://www.w3.org/1999/xlink" x="0px" y="0px"
	 viewBox="0 0 64 64" style="enable-background:new 0 0 64 64;" xml:space="preserve">
<style type="text/css">
	.st0{fill:#C1CED4;}
	.st1{fill:#F95632;}
	.st2{fill:#33CCCC;}
	.st3{fill:#FFFFFF;}
</style>
<g>
	<circle class="st0" cx="40" cy="11.2" r="5.8"/>
	<rect x="26.3" y="55.6" class="st0" width="12.8" height="6.8"/>
	<g>
		<path class="st0" d="M54.7,51.2H10.8V23.3c0-1.4,1.1-2.5,2.5-2.5h38.9c1.4,0,2.5,1.1,2.5,2.5V51.2z M13.8,48.2h37.9V23.8H13.8
			V48.2z"/>
	</g>
	<g>
		<path d="M52.2,56.5H13.3c-1.4,0-2.5-1.1-2.5-2.5v-3h43.9v3C54.7,55.4,53.6,56.5,52.2,56.5z"/>
	</g>
	<rect x="23.2" y="61.7" width="18.9" height="1.3"/>
	<polygon class="st1" points="10.8,51.1 17.4,44.3 20.8,47.7 24.5,44.3 26.2,45.9 31,41.2 33.2,43.2 35.8,41.2 36.8,42.3 41.6,38.2 
		44.3,40.7 48.7,36 48.7,51.1 	"/>
	<g>
		<g>
			<polygon points="6.4,48.5 5,47.1 15.7,36.7 20.6,41.5 25.5,36.7 28.1,38.9 35,32.3 38.4,35.3 41.7,32.3 43.1,33.6 50.1,28.2 
				53.5,30.8 59.2,25.7 60.5,27.2 53.6,33.4 50.1,30.7 42.9,36.3 41.6,35 38.4,38 35,35 28.2,41.7 25.6,39.4 20.7,44.3 15.7,39.4 
							"/>
		</g>
		<g>
			<g>
				<polygon points="59.2,31.6 59.5,26.8 54.7,26.5 56.8,24.6 61.6,24.9 61.4,29.6 				"/>
			</g>
		</g>
	</g>
	<g>
		<polygon class="st2" points="2.4,31.5 2.4,14.9 30.4,14.9 30.4,31.5 9.8,31.5 5.5,35.7 5.5,31.5 		"/>
		<rect x="4.6" y="25.9" class="st3" width="1.8" height="2.2"/>
		<rect x="6.8" y="23.8" class="st3" width="1.8" height="4.3"/>
		<rect x="9" y="24.8" class="st3" width="1.8" height="3.4"/>
		<rect x="11.2" y="20" class="st3" width="1.8" height="8.1"/>
		<rect x="13.3" y="23" class="st3" width="1.8" height="5.2"/>
		<rect x="15.5" y="18.4" class="st3" width="1.8" height="9.8"/>
		<rect x="17.7" y="21.9" class="st3" width="1.8" height="6.3"/>
		<rect x="20" y="24.1" class="st3" width="1.8" height="4.1"/>
		<rect x="22.2" y="20" class="st3" width="1.8" height="8.1"/>
		<rect x="24.3" y="16.2" class="st3" width="1.8" height="11.9"/>
	</g>
	<g>
		<path d="M9.9,16.6c-2.1,0-3.9-1.7-3.9-3.9c0-2.1,1.7-3.9,3.9-3.9s3.9,1.7,3.9,3.9C13.8,14.9,12,16.6,9.9,16.6z M9.9,10.3
			c-1.3,0-2.4,1.1-2.4,2.4c0,1.3,1.1,2.4,2.4,2.4s2.4-1.1,2.4-2.4C12.3,11.4,11.2,10.3,9.9,10.3z"/>
	</g>
	<circle class="st2" cx="41.3" cy="27.7" r="1.7"/>
	<circle class="st1" cx="51.9" cy="19.4" r="3.2"/>
	<path class="st1" d="M41.9,13.1c-0.4,0.4-1,0.6-1.7,0.6c-0.1,0-0.2,0-0.3,0l-0.1,4.4c0.2,0,0.3,0,0.5,0c1.6,0,3.1-0.6,4.3-1.5
		L41.9,13.1z"/>
	<path class="st2" d="M42.5,10.1c0.5,0.9,0,2.6-0.7,2.9l3.2,4.4c3.1-2.2,3.6-6.9,2.3-9.5L42.5,10.1z"/>
	<g>
		<path d="M40.6,12.5l-9.1-7.6l0.5-0.6c0.1-0.1,1.8-1.9,4.1-2.9c2.1-0.9,5.2-0.4,5.3-0.4l0.7,0.1L40.6,12.5z M33.7,4.8l5.8,4.8
			l1-7.1c-1-0.1-2.6-0.1-3.8,0.4C35.5,3.4,34.4,4.3,33.7,4.8z"/>
	</g>
	<g>
		<rect x="21.4" y="4.1" transform="matrix(0.7071 -0.7071 0.7071 0.7071 0.2727 18.2407)" width="1.5" height="9.3"/>
	</g>
	<g>
		<rect x="17.5" y="8" transform="matrix(0.7071 -0.7071 0.7071 0.7071 0.2727 18.2407)" width="9.3" height="1.5"/>
	</g>
</g>
</svg>
