<?xml version="1.0" encoding="utf-8"?>
<!-- Generator: Adobe Illustrator 22.1.0, SVG Export Plug-In . SVG Version: 6.00 Build 0)  -->
<svg version="1.1" id="Layer_1" xmlns="http://www.w3.org/2000/svg" xmlns:xlink="http://www.w3.org/1999/xlink" x="0px" y="0px"
	 viewBox="0 0 64 64" style="enable-background:new 0 0 64 64;" xml:space="preserve">
<style type="text/css">
	.st0{fill:#33CCCC;}
	.st1{fill:#C1CED4;}
	.st2{fill:#F95632;}
	.st3{fill:#FFFFFF;}
</style>
<g>
	<path class="st0" d="M50.7,57.8H14c-1.1,0-2-0.9-2-2v-26c0-1.1,0.9-2,2-2h3.5c0,0,1.9,14.5,14.7,14.5c12.6,0,14.9-14.5,14.9-14.5
		h3.5c1.1,0,2,0.9,2,2v26C52.7,57,51.8,57.8,50.7,57.8z"/>
	<path class="st1" d="M45.9,31.7L44.2,30c0,0-1.5,0.9-2.1,0.9c-0.6,0-2.9-2.9-2.9-2.9l-2.6,0.3l-4.2,1.5L27,28.1l-1.4,0.4l-2.1,2.1
		l-2.4-0.8L18.9,32c0,0,1.5,5,4.2,6.8s6.5,3.3,9.4,3.3s9.2-2,10.6-4.3C44.4,35.5,45.9,31.7,45.9,31.7z"/>
	<path d="M50.4,60.7H14.6V47.6h35.8V60.7z M16.1,59.2h32.8V49.1H16.1V59.2z"/>
	<rect x="12.1" y="44.6" width="40.6" height="1.5"/>
	<path d="M32.5,42.9c-12.9,0-15.1-12.6-15.1-12.7l0-0.1v-23h30.1l0,22.6C47.4,29.8,45.3,42.9,32.5,42.9z M18.9,30
		c0.2,1,2.4,11.4,13.6,11.4c11.3,0,13.3-10.9,13.5-11.9v-21H18.9V30z"/>
	<polygon points="42.1,38.2 35.8,28.1 35.8,25.4 37.3,25.4 37.3,27.7 43.4,37.4 	"/>
	<polygon points="40.2,40 33.7,29.5 33.7,25.4 35.2,25.4 35.2,29.1 41.5,39.2 	"/>
	<polygon points="22.4,38.2 21.1,37.4 27.2,27.7 27.2,25.4 28.7,25.4 28.7,28.1 	"/>
	<polygon points="24.3,40 23,39.2 29.3,29.1 29.3,25.4 30.8,25.4 30.8,29.5 	"/>
	<path d="M32.4,30.5c-2.6,0-4.1-1.2-4.6-1.8h-2.4v-1.5h3.1l0.2,0.3c0,0.1,1.1,1.5,3.7,1.5c2.5,0,3.5-1.4,3.5-1.4l0.2-0.3l0.4,0h2.9
		v1.5h-2.5C36.4,29.3,35,30.5,32.4,30.5z"/>
	<polygon points="50.4,27.9 48.9,27.9 48.9,22.1 46.7,22.1 46.7,20.6 50.4,20.6 	"/>
	<polygon points="53.9,25.4 49.6,25.4 49.6,23.9 52.4,23.9 52.4,20.6 55,20.6 55,22.1 53.9,22.1 	"/>
	<rect x="21.7" y="9.6" width="15.9" height="1.5"/>
	<rect x="21.7" y="12.1" width="20.1" height="1.5"/>
	<rect x="28.4" y="14.7" width="13.3" height="1.5"/>
	<rect x="28.4" y="17.1" width="13.3" height="1.5"/>
	<rect x="28.4" y="19.9" width="4.8" height="1.5"/>
	<rect x="50.1" y="7.4" width="5.1" height="1.5"/>
	<rect x="50.1" y="10.1" width="5.1" height="1.5"/>
	<rect x="50.1" y="12.8" width="4.2" height="1.5"/>
	<polygon points="15.9,27.9 14.4,27.9 14.4,20.6 18.1,20.6 18.1,22.1 15.9,22.1 	"/>
	<rect x="11.5" y="23.9" width="3.6" height="1.5"/>
	<path d="M12.2,28.7H8.7v-8.1h3.5V28.7z M10.2,27.2h0.5v-5.1h-0.5V27.2z"/>
	<path d="M22.9,31.3c-1.9,0-3.4-1.5-3.4-3.4s1.5-3.4,3.4-3.4s3.4,1.5,3.4,3.4S24.8,31.3,22.9,31.3z M22.9,26.1c-1,0-1.9,0.8-1.9,1.9
		s0.8,1.9,1.9,1.9s1.9-0.8,1.9-1.9S24,26.1,22.9,26.1z"/>
	<circle cx="22.9" cy="27.9" r="0.5"/>
	<path d="M42.1,31.3c-1.9,0-3.4-1.5-3.4-3.4s1.5-3.4,3.4-3.4s3.4,1.5,3.4,3.4S43.9,31.3,42.1,31.3z M42.1,26.1c-1,0-1.9,0.8-1.9,1.9
		s0.8,1.9,1.9,1.9s1.9-0.8,1.9-1.9S43.1,26.1,42.1,26.1z"/>
	<circle cx="42.1" cy="27.9" r="0.5"/>
	<rect x="10.3" y="3.3" class="st2" width="13.3" height="13.3"/>
	<path class="st3" d="M18.6,14.9v-4.2h-3.2v4.2h-1.8V8c0-1,0.3-1.8,0.9-2.3s1.4-0.8,2.5-0.8c1.1,0,2,0.3,2.5,0.8
		C20.1,6.2,20.3,7,20.3,8v6.9H18.6z M18.6,8.3c0-0.3,0-0.5-0.1-0.8c0-0.2-0.1-0.5-0.2-0.6c-0.1-0.2-0.3-0.3-0.5-0.4
		c-0.2-0.1-0.5-0.2-0.8-0.2s-0.6,0.1-0.8,0.2c-0.2,0.1-0.4,0.3-0.5,0.4c-0.1,0.2-0.2,0.4-0.2,0.6c0,0.2-0.1,0.5-0.1,0.8v1.1h3.2V8.3
		z"/>
	<rect x="14.5" y="40.4" class="st3" width="5.1" height="2.5"/>
	<rect x="19.3" y="49.5" class="st3" width="1.5" height="1.5"/>
	<rect x="21.9" y="49.5" class="st3" width="1.5" height="1.5"/>
	<rect x="24.4" y="49.5" class="st3" width="1.5" height="1.5"/>
	<rect x="26.9" y="49.5" class="st3" width="1.5" height="1.5"/>
	<rect x="29.2" y="49.5" class="st3" width="1.5" height="1.5"/>
	<rect x="31.7" y="49.5" class="st3" width="1.5" height="1.5"/>
	<rect x="34.1" y="49.5" class="st3" width="1.5" height="1.5"/>
	<rect x="36.6" y="49.5" class="st3" width="1.5" height="1.5"/>
	<rect x="38.9" y="49.5" class="st3" width="1.5" height="1.5"/>
	<rect x="41.5" y="49.5" class="st3" width="1.5" height="1.5"/>
	<rect x="43.9" y="49.5" class="st3" width="1.5" height="1.5"/>
	<rect x="17.9" y="52" class="st3" width="1.5" height="1.5"/>
	<rect x="20.6" y="52" class="st3" width="1.5" height="1.5"/>
	<rect x="19.3" y="54.4" class="st3" width="1.5" height="1.5"/>
	<rect x="21.9" y="54.4" class="st3" width="1.5" height="1.5"/>
	<rect x="24.2" y="54.4" class="st3" width="16.4" height="1.5"/>
	<rect x="23" y="52" class="st3" width="1.5" height="1.5"/>
	<rect x="25.5" y="52" class="st3" width="1.5" height="1.5"/>
	<rect x="27.8" y="52" class="st3" width="1.5" height="1.5"/>
	<rect x="30.4" y="52" class="st3" width="1.5" height="1.5"/>
	<rect x="32.8" y="52" class="st3" width="1.5" height="1.5"/>
	<rect x="35.2" y="52" class="st3" width="1.5" height="1.5"/>
	<rect x="37.5" y="52" class="st3" width="1.5" height="1.5"/>
	<rect x="40.2" y="52" class="st3" width="1.5" height="1.5"/>
	<rect x="42.6" y="52" class="st3" width="1.5" height="1.5"/>
	<rect x="45.1" y="52" class="st3" width="1.5" height="1.5"/>
	<rect x="41.5" y="54.4" class="st3" width="1.5" height="1.5"/>
	<rect x="44" y="54.4" class="st3" width="1.5" height="1.5"/>
</g>
</svg>
